<?xml version="1.0" encoding="UTF-8"?>
<!DOCTYPE svg PUBLIC "-//W3C//DTD SVG 1.1//EN" "http://www.w3.org/Graphics/SVG/1.1/DTD/svg11.dtd">
<svg xmlns="http://www.w3.org/2000/svg" version="1.1" width="996px" height="992px" style="shape-rendering:geometricPrecision; text-rendering:geometricPrecision; image-rendering:optimizeQuality; fill-rule:evenodd; clip-rule:evenodd" xmlns:xlink="http://www.w3.org/1999/xlink">
<g><path style="opacity:0.994" fill="#c81e00" d="M 995.5,26.5 C 995.5,30.8333 995.5,35.1667 995.5,39.5C 991.694,57.0627 985.194,73.7293 976,89.5C 932.781,167.011 884.448,241.011 831,311.5C 762.217,399.806 686.717,482.473 604.5,559.5C 604.206,556.246 602.873,553.579 600.5,551.5C 597.484,547.485 593.817,544.152 589.5,541.5C 585.966,539.234 582.3,537.234 578.5,535.5C 576.151,533.659 573.485,532.326 570.5,531.5C 570.158,530.662 569.492,530.328 568.5,530.5C 566.151,528.659 563.485,527.326 560.5,526.5C 559.101,525.11 557.434,524.11 555.5,523.5C 554.486,522.326 553.153,521.66 551.5,521.5C 551.158,520.662 550.492,520.328 549.5,520.5C 547.574,519.514 545.574,518.514 543.5,517.5C 541.287,516.227 538.954,515.227 536.5,514.5C 535.232,512.953 533.565,511.953 531.5,511.5C 531.158,510.662 530.492,510.328 529.5,510.5C 528.486,509.326 527.153,508.66 525.5,508.5C 524.035,507.263 522.368,506.263 520.5,505.5C 519.167,504.833 517.833,504.167 516.5,503.5C 515.486,502.326 514.153,501.66 512.5,501.5C 511.205,500.512 509.872,499.512 508.5,498.5C 507.609,497.89 506.609,497.557 505.5,497.5C 505.5,496.833 505.167,496.5 504.5,496.5C 505.935,495.904 507.602,495.904 509.5,496.5C 509.842,497.338 510.508,497.672 511.5,497.5C 512.209,498.404 513.209,498.737 514.5,498.5C 515.209,499.404 516.209,499.737 517.5,499.5C 518.209,500.404 519.209,500.737 520.5,500.5C 522.774,502.358 525.274,502.691 528,501.5C 532.466,495.618 537.132,489.951 542,484.5C 550.471,475.274 559.138,466.274 568,457.5C 569,455.833 570,454.167 571,452.5C 585.689,436.146 600.689,420.146 616,404.5C 617.333,402.5 618.667,400.5 620,398.5C 632,385.833 644,373.167 656,360.5C 657,358.833 658,357.167 659,355.5C 674.137,338.943 689.47,322.609 705,306.5C 706,304.833 707,303.167 708,301.5C 720,288.833 732,276.167 744,263.5C 745,261.833 746,260.167 747,258.5C 762.137,241.943 777.47,225.609 793,209.5C 794,207.833 795,206.167 796,204.5C 808,191.833 820,179.167 832,166.5C 833.947,162.22 836.947,158.887 841,156.5C 845.466,150.618 850.132,144.951 855,139.5C 863.471,130.274 872.138,121.274 881,112.5C 882,110.833 883,109.167 884,107.5C 899.137,90.9427 914.47,74.6094 930,58.5C 931,56.8333 932,55.1667 933,53.5C 941.471,44.2744 950.138,35.2744 959,26.5C 960.879,24.4732 962.046,22.1398 962.5,19.5C 957.679,18.4026 953.013,18.4026 948.5,19.5C 946.901,19.2322 945.568,19.5655 944.5,20.5C 942.265,20.2053 940.265,20.5386 938.5,21.5C 935.848,21.4095 933.515,22.0762 931.5,23.5C 929.214,23.595 927.214,24.2616 925.5,25.5C 923.214,25.595 921.214,26.2616 919.5,27.5C 917.597,27.7959 915.93,28.4625 914.5,29.5C 912.597,29.7959 910.93,30.4625 909.5,31.5C 904.07,33.0502 899.07,35.3836 894.5,38.5C 890.946,39.7693 887.946,41.7693 885.5,44.5C 879.959,47.4365 874.959,51.1031 870.5,55.5C 856.26,65.7375 842.927,77.0708 830.5,89.5C 811.69,105.921 793.69,123.255 776.5,141.5C 756.84,160.327 737.673,179.66 719,199.5C 636.462,287.322 555.795,376.655 477,467.5C 476.505,469.473 476.338,471.473 476.5,473.5C 476.833,474.833 477.167,476.167 477.5,477.5C 476.833,477.167 476.167,476.833 475.5,476.5C 474.5,474.833 473.167,473.5 471.5,472.5C 467.529,468.563 464.029,464.23 461,459.5C 460.51,458.207 460.343,456.873 460.5,455.5C 552.436,342.367 649.769,233.534 752.5,129C 778.934,102.894 806.268,77.8938 834.5,54C 851.33,40.17 868.997,27.5034 887.5,16C 916.1,1.17531 946.1,-2.82469 977.5,4C 987.467,8.45349 993.467,15.9535 995.5,26.5 Z"/></g>
<g><path style="opacity:1" fill="#cf3c22" d="M 948.5,19.5 C 804.566,179.77 659.899,339.437 514.5,498.5C 513.209,498.737 512.209,498.404 511.5,497.5C 656.174,338.825 800.508,179.825 944.5,20.5C 945.568,19.5655 946.901,19.2322 948.5,19.5 Z"/></g>
<g><path style="opacity:1" fill="#cd361c" d="M 948.5,19.5 C 950.167,19.5 951.833,19.5 953.5,19.5C 808.508,179.825 663.174,339.825 517.5,499.5C 516.209,499.737 515.209,499.404 514.5,498.5C 659.899,339.437 804.566,179.77 948.5,19.5 Z"/></g>
<g><path style="opacity:1" fill="#cc3115" d="M 953.5,19.5 C 954.873,19.3433 956.207,19.51 957.5,20C 811.968,180.362 666.301,340.529 520.5,500.5C 519.209,500.737 518.209,500.404 517.5,499.5C 663.174,339.825 808.508,179.825 953.5,19.5 Z"/></g>
<g><path style="opacity:1" fill="#ca290d" d="M 948.5,19.5 C 953.013,18.4026 957.679,18.4026 962.5,19.5C 962.046,22.1398 960.879,24.4732 959,26.5C 950.138,35.2744 941.471,44.2744 933,53.5C 932,55.1667 931,56.8333 930,58.5C 914.47,74.6094 899.137,90.9427 884,107.5C 883,109.167 882,110.833 881,112.5C 872.138,121.274 863.471,130.274 855,139.5C 850.132,144.951 845.466,150.618 841,156.5C 836.947,158.887 833.947,162.22 832,166.5C 820,179.167 808,191.833 796,204.5C 795,206.167 794,207.833 793,209.5C 777.47,225.609 762.137,241.943 747,258.5C 746,260.167 745,261.833 744,263.5C 732,276.167 720,288.833 708,301.5C 707,303.167 706,304.833 705,306.5C 689.47,322.609 674.137,338.943 659,355.5C 658,357.167 657,358.833 656,360.5C 644,373.167 632,385.833 620,398.5C 618.667,400.5 617.333,402.5 616,404.5C 600.689,420.146 585.689,436.146 571,452.5C 570,454.167 569,455.833 568,457.5C 559.138,466.274 550.471,475.274 542,484.5C 537.132,489.951 532.466,495.618 528,501.5C 525.274,502.691 522.774,502.358 520.5,500.5C 666.301,340.529 811.968,180.362 957.5,20C 956.207,19.51 954.873,19.3433 953.5,19.5C 951.833,19.5 950.167,19.5 948.5,19.5 Z"/></g>
<g><path style="opacity:1" fill="#d04128" d="M 938.5,21.5 C 940.265,20.5386 942.265,20.2053 944.5,20.5C 800.508,179.825 656.174,338.825 511.5,497.5C 510.508,497.672 509.842,497.338 509.5,496.5C 652.626,338.204 795.96,180.037 939.5,22C 939.272,21.6012 938.938,21.4346 938.5,21.5 Z"/></g>
<g><path style="opacity:1" fill="#d2472e" d="M 938.5,21.5 C 938.938,21.4346 939.272,21.6012 939.5,22C 795.96,180.037 652.626,338.204 509.5,496.5C 507.602,495.904 505.935,495.904 504.5,496.5C 503.5,496.167 502.833,495.5 502.5,494.5C 506.503,494.029 509.669,492.029 512,488.5C 651.631,333.868 791.631,179.534 932,25.5C 932.692,24.5632 932.525,23.8966 931.5,23.5C 933.515,22.0762 935.848,21.4095 938.5,21.5 Z"/></g>
<g><path style="opacity:1" fill="#d34d35" d="M 931.5,23.5 C 932.525,23.8966 932.692,24.5632 932,25.5C 791.631,179.534 651.631,333.868 512,488.5C 509.669,492.029 506.503,494.029 502.5,494.5C 502.167,494.5 501.833,494.5 501.5,494.5C 584.853,404.343 667.02,313.676 748,222.5C 752.053,220.113 755.053,216.78 757,212.5C 759.185,211.072 761.185,209.405 763,207.5C 771,198.167 779,188.833 787,179.5C 791.053,177.113 794.053,173.78 796,169.5C 798.185,168.072 800.185,166.405 802,164.5C 810,155.167 818,145.833 826,136.5C 831.333,131.167 836.667,125.833 842,120.5C 843.947,116.22 846.947,112.887 851,110.5C 859,101.167 867,91.8333 875,82.5C 880.333,77.1667 885.667,71.8333 891,66.5C 898.667,57.5 906.333,48.5 914,39.5C 916.185,38.0716 918.185,36.4049 920,34.5C 921.932,31.1156 924.432,28.2823 927.5,26C 926.906,25.5357 926.239,25.369 925.5,25.5C 927.214,24.2616 929.214,23.595 931.5,23.5 Z"/></g>
<g><path style="opacity:1" fill="#d4523b" d="M 925.5,25.5 C 926.239,25.369 926.906,25.5357 927.5,26C 924.432,28.2823 921.932,31.1156 920,34.5C 918.185,36.4049 916.185,38.0716 914,39.5C 906.333,48.5 898.667,57.5 891,66.5C 885.667,71.8333 880.333,77.1667 875,82.5C 867,91.8333 859,101.167 851,110.5C 846.947,112.887 843.947,116.22 842,120.5C 836.667,125.833 831.333,131.167 826,136.5C 818,145.833 810,155.167 802,164.5C 800.185,166.405 798.185,168.072 796,169.5C 794.053,173.78 791.053,177.113 787,179.5C 779,188.833 771,198.167 763,207.5C 761.185,209.405 759.185,211.072 757,212.5C 755.053,216.78 752.053,220.113 748,222.5C 667.02,313.676 584.853,404.343 501.5,494.5C 500.833,494.167 500.167,493.833 499.5,493.5C 640.329,338.503 780.996,183.336 921.5,28C 920.906,27.5357 920.239,27.369 919.5,27.5C 921.214,26.2616 923.214,25.595 925.5,25.5 Z"/></g>
<g><path style="opacity:1" fill="#d65842" d="M 919.5,27.5 C 920.239,27.369 920.906,27.5357 921.5,28C 780.996,183.336 640.329,338.503 499.5,493.5C 499.167,493.5 498.833,493.5 498.5,493.5C 498.167,492.833 497.833,492.167 497.5,491.5C 636.996,337.836 776.329,184.003 915.5,30C 915.272,29.6012 914.938,29.4346 914.5,29.5C 915.93,28.4625 917.597,27.7959 919.5,27.5 Z"/></g>
<g><path style="opacity:1" fill="#d75d48" d="M 914.5,29.5 C 914.938,29.4346 915.272,29.6012 915.5,30C 776.329,184.003 636.996,337.836 497.5,491.5C 496.508,491.672 495.842,491.338 495.5,490.5C 500.052,483.77 505.219,477.436 511,471.5C 644.732,324.97 777.565,178.303 909.5,31.5C 910.93,30.4625 912.597,29.7959 914.5,29.5 Z"/></g>
<g><path style="opacity:1" fill="#d96450" d="M 909.5,31.5 C 777.565,178.303 644.732,324.97 511,471.5C 505.219,477.436 500.052,483.77 495.5,490.5C 495.167,490.5 494.833,490.5 494.5,490.5C 493.205,489.512 491.872,488.512 490.5,487.5C 491.598,486.603 491.598,485.77 490.5,485C 498.764,476.613 506.931,468.113 515,459.5C 516,457.833 517,456.167 518,454.5C 533.137,437.943 548.47,421.609 564,405.5C 565.947,401.22 568.947,397.887 573,395.5C 581,386.167 589,376.833 597,367.5C 601.053,365.113 604.053,361.78 606,357.5C 621.137,340.943 636.47,324.609 652,308.5C 653,306.833 654,305.167 655,303.5C 670.137,286.943 685.47,270.609 701,254.5C 702.947,250.22 705.947,246.887 710,244.5C 718,235.167 726,225.833 734,216.5C 738.053,214.113 741.053,210.78 743,206.5C 758.137,189.943 773.47,173.609 789,157.5C 790.947,153.22 793.947,149.887 798,147.5C 812.333,131.167 826.667,114.833 841,98.5C 853,85.8333 865,73.1667 877,60.5C 881.015,54.8275 885.348,49.4942 890,44.5C 892.074,42.5479 894.241,40.7146 896.5,39C 895.906,38.5357 895.239,38.369 894.5,38.5C 899.07,35.3836 904.07,33.0502 909.5,31.5 Z"/></g>
<g><path style="opacity:1" fill="#db6d5a" d="M 894.5,38.5 C 895.239,38.369 895.906,38.5357 896.5,39C 894.241,40.7146 892.074,42.5479 890,44.5C 885.348,49.4942 881.015,54.8275 877,60.5C 865,73.1667 853,85.8333 841,98.5C 826.667,114.833 812.333,131.167 798,147.5C 793.947,149.887 790.947,153.22 789,157.5C 773.47,173.609 758.137,189.943 743,206.5C 741.053,210.78 738.053,214.113 734,216.5C 726,225.833 718,235.167 710,244.5C 705.947,246.887 702.947,250.22 701,254.5C 685.47,270.609 670.137,286.943 655,303.5C 654,305.167 653,306.833 652,308.5C 636.47,324.609 621.137,340.943 606,357.5C 604.053,361.78 601.053,365.113 597,367.5C 589,376.833 581,386.167 573,395.5C 568.947,397.887 565.947,401.22 564,405.5C 548.47,421.609 533.137,437.943 518,454.5C 517,456.167 516,457.833 515,459.5C 506.931,468.113 498.764,476.613 490.5,485C 491.598,485.77 491.598,486.603 490.5,487.5C 490.167,487.5 489.833,487.5 489.5,487.5C 489.167,486.5 488.5,485.833 487.5,485.5C 619.901,338.258 752.901,191.425 886.5,45C 886.272,44.6012 885.938,44.4346 885.5,44.5C 887.946,41.7693 890.946,39.7693 894.5,38.5 Z"/></g>
<g><path style="opacity:1" fill="#dc7360" d="M 885.5,44.5 C 885.938,44.4346 886.272,44.6012 886.5,45C 752.901,191.425 619.901,338.258 487.5,485.5C 487.167,485.5 486.833,485.5 486.5,485.5C 486.167,484.833 485.833,484.167 485.5,483.5C 485.351,482.448 485.517,481.448 486,480.5C 614.869,339.299 743.369,197.799 871.5,56C 871.272,55.6012 870.938,55.4346 870.5,55.5C 874.959,51.1031 879.959,47.4365 885.5,44.5 Z"/></g>
<g><path style="opacity:1" fill="#df7c6b" d="M 870.5,55.5 C 870.938,55.4346 871.272,55.6012 871.5,56C 743.369,197.799 614.869,339.299 486,480.5C 485.517,481.448 485.351,482.448 485.5,483.5C 484.609,482.89 483.609,482.557 482.5,482.5C 481.833,481.5 481.167,480.5 480.5,479.5C 597.468,349.78 714.801,220.28 832.5,91C 831.956,90.2828 831.289,89.7828 830.5,89.5C 842.927,77.0708 856.26,65.7375 870.5,55.5 Z"/></g>
<g><path style="opacity:1" fill="#e18777" d="M 830.5,89.5 C 831.289,89.7828 831.956,90.2828 832.5,91C 714.801,220.28 597.468,349.78 480.5,479.5C 480.167,479.5 479.833,479.5 479.5,479.5C 478.833,478.833 478.167,478.167 477.5,477.5C 477.167,476.167 476.833,474.833 476.5,473.5C 576.801,363.696 676.968,253.696 777,143.5C 777.692,142.563 777.525,141.897 776.5,141.5C 793.69,123.255 811.69,105.921 830.5,89.5 Z"/></g>
<g><path style="opacity:1" fill="#e38f80" d="M 776.5,141.5 C 777.525,141.897 777.692,142.563 777,143.5C 676.968,253.696 576.801,363.696 476.5,473.5C 476.338,471.473 476.505,469.473 477,467.5C 555.795,376.655 636.462,287.322 719,199.5C 737.673,179.66 756.84,160.327 776.5,141.5 Z"/></g>
<g><path style="opacity:0.98" fill="#edc071" d="M 460.5,455.5 C 460.343,456.873 460.51,458.207 461,459.5C 464.029,464.23 467.529,468.563 471.5,472.5C 430.563,514.605 389.396,556.605 348,598.5C 343.333,603.833 338.667,609.167 334,614.5C 332.549,616.464 330.716,617.797 328.5,618.5C 371.325,564.197 414.158,509.864 457,455.5C 458.145,454.316 459.312,454.316 460.5,455.5 Z"/></g>
<g><path style="opacity:0.993" fill="#eec57d" d="M 471.5,472.5 C 473.167,473.5 474.5,474.833 475.5,476.5C 472.269,478.22 469.436,480.553 467,483.5C 413.53,539.304 359.697,594.804 305.5,650C 304.906,650.464 304.239,650.631 303.5,650.5C 311.833,639.833 320.167,629.167 328.5,618.5C 330.716,617.797 332.549,616.464 334,614.5C 338.667,609.167 343.333,603.833 348,598.5C 389.396,556.605 430.563,514.605 471.5,472.5 Z"/></g>
<g><path style="opacity:0.993" fill="#f0cb8a" d="M 475.5,476.5 C 476.167,476.833 476.833,477.167 477.5,477.5C 478.167,478.167 478.833,478.833 479.5,479.5C 475.752,482.137 472.252,485.137 469,488.5C 401.507,559.155 333.673,629.155 265.5,698.5C 277.816,682.188 290.483,666.188 303.5,650.5C 304.239,650.631 304.906,650.464 305.5,650C 359.697,594.804 413.53,539.304 467,483.5C 469.436,480.553 472.269,478.22 475.5,476.5 Z"/></g>
<g><path style="opacity:0.992" fill="#f2d097" d="M 479.5,479.5 C 479.833,479.5 480.167,479.5 480.5,479.5C 481.167,480.5 481.833,481.5 482.5,482.5C 403.863,563.805 324.863,644.805 245.5,725.5C 251.371,715.955 258.038,706.955 265.5,698.5C 333.673,629.155 401.507,559.155 469,488.5C 472.252,485.137 475.752,482.137 479.5,479.5 Z"/></g>
<g><path style="opacity:1" fill="#f5dbaf" d="M 486.5,485.5 C 486.833,485.5 487.167,485.5 487.5,485.5C 488.5,485.833 489.167,486.5 489.5,487.5C 413.9,566.602 337.733,645.269 261,723.5C 257.927,727.061 255.094,730.728 252.5,734.5C 250.413,733.415 249.08,731.749 248.5,729.5C 327.471,647.862 406.804,566.529 486.5,485.5 Z"/></g>
<g><path style="opacity:1" fill="#f6e1bc" d="M 489.5,487.5 C 489.833,487.5 490.167,487.5 490.5,487.5C 491.872,488.512 493.205,489.512 494.5,490.5C 421.867,564.634 349.367,638.967 277,713.5C 269.604,721.391 262.437,729.391 255.5,737.5C 254.167,736.833 253.167,735.833 252.5,734.5C 255.094,730.728 257.927,727.061 261,723.5C 337.733,645.269 413.9,566.602 489.5,487.5 Z"/></g>
<g><path style="opacity:1" fill="#f8e7c9" d="M 494.5,490.5 C 494.833,490.5 495.167,490.5 495.5,490.5C 495.842,491.338 496.508,491.672 497.5,491.5C 497.833,492.167 498.167,492.833 498.5,493.5C 420.536,573.965 342.369,654.298 264,734.5C 262.25,736.734 260.75,739.068 259.5,741.5C 257.833,740.5 256.5,739.167 255.5,737.5C 262.437,729.391 269.604,721.391 277,713.5C 349.367,638.967 421.867,564.634 494.5,490.5 Z"/></g>
<g><path style="opacity:1" fill="#f8e7ca" d="M 505.5,497.5 C 506.609,497.557 507.609,497.89 508.5,498.5C 500.619,507.558 492.452,516.558 484,525.5C 435.308,575.858 386.308,625.858 337,675.5C 321.31,692.854 305.31,709.854 289,726.5C 282.446,733.054 275.946,739.554 269.5,746C 268.207,746.49 266.873,746.657 265.5,746.5C 264.833,746.5 264.5,746.167 264.5,745.5C 275.413,736.091 285.913,726.091 296,715.5C 360.77,648.308 425.77,581.308 491,514.5C 496.066,508.941 500.9,503.275 505.5,497.5 Z"/></g>
<g><path style="opacity:1" fill="#f7e3c0" d="M 508.5,498.5 C 509.872,499.512 511.205,500.512 512.5,501.5C 432.503,584.831 352.169,667.831 271.5,750.5C 269.223,749.551 267.223,748.218 265.5,746.5C 266.873,746.657 268.207,746.49 269.5,746C 275.946,739.554 282.446,733.054 289,726.5C 305.31,709.854 321.31,692.854 337,675.5C 386.308,625.858 435.308,575.858 484,525.5C 492.452,516.558 500.619,507.558 508.5,498.5 Z"/></g>
<g><path style="opacity:1" fill="#f6ddb3" d="M 512.5,501.5 C 514.153,501.66 515.486,502.326 516.5,503.5C 511.566,509.608 506.399,515.608 501,521.5C 426.167,598.333 351.333,675.167 276.5,752C 275.906,752.464 275.239,752.631 274.5,752.5C 272.973,752.573 271.973,751.906 271.5,750.5C 352.169,667.831 432.503,584.831 512.5,501.5 Z"/></g>
<g><path style="opacity:1" fill="#f4d8a7" d="M 516.5,503.5 C 517.833,504.167 519.167,504.833 520.5,505.5C 519.588,507.595 518.421,509.595 517,511.5C 440.637,589.529 364.637,667.863 289,746.5C 285.902,750.107 282.402,753.107 278.5,755.5C 276.596,755.262 275.262,754.262 274.5,752.5C 275.239,752.631 275.906,752.464 276.5,752C 351.333,675.167 426.167,598.333 501,521.5C 506.399,515.608 511.566,509.608 516.5,503.5 Z"/></g>
<g><path style="opacity:1" fill="#f3d29a" d="M 520.5,505.5 C 522.368,506.263 524.035,507.263 525.5,508.5C 447.203,589.965 368.703,671.298 290,752.5C 287.894,755.118 285.394,757.118 282.5,758.5C 280.77,757.974 279.436,756.974 278.5,755.5C 282.402,753.107 285.902,750.107 289,746.5C 364.637,667.863 440.637,589.529 517,511.5C 518.421,509.595 519.588,507.595 520.5,505.5 Z"/></g>
<g><path style="opacity:1" fill="#f1cd8e" d="M 525.5,508.5 C 527.153,508.66 528.486,509.326 529.5,510.5C 529.631,511.239 529.464,511.906 529,512.5C 447.934,595.065 367.434,678.065 287.5,761.5C 285.632,760.737 283.965,759.737 282.5,758.5C 285.394,757.118 287.894,755.118 290,752.5C 368.703,671.298 447.203,589.965 525.5,508.5 Z"/></g>
<g><path style="opacity:1" fill="#f0c985" d="M 529.5,510.5 C 530.492,510.328 531.158,510.662 531.5,511.5C 529.913,514.268 528.08,516.935 526,519.5C 446.936,600.395 368.103,681.395 289.5,762.5C 288.508,762.672 287.842,762.338 287.5,761.5C 367.434,678.065 447.934,595.065 529,512.5C 529.464,511.906 529.631,511.239 529.5,510.5 Z"/></g>
<g><path style="opacity:1" fill="#efc47b" d="M 531.5,511.5 C 533.565,511.953 535.232,512.953 536.5,514.5C 457.226,596.389 378.059,678.389 299,760.5C 297.429,762.923 295.263,764.256 292.5,764.5C 290.973,764.573 289.973,763.906 289.5,762.5C 368.103,681.395 446.936,600.395 526,519.5C 528.08,516.935 529.913,514.268 531.5,511.5 Z"/></g>
<g><path style="opacity:1" fill="#eab457" d="M 543.5,517.5 C 545.574,518.514 547.574,519.514 549.5,520.5C 468.5,604.5 387.5,688.5 306.5,772.5C 303.669,771.921 301.336,770.588 299.5,768.5C 381.054,685.068 462.388,601.401 543.5,517.5 Z"/></g>
<g><path style="opacity:1" fill="#e9b04d" d="M 549.5,520.5 C 550.492,520.328 551.158,520.662 551.5,521.5C 546.232,527.942 540.732,534.275 535,540.5C 459.297,618.035 383.797,695.702 308.5,773.5C 307.508,773.672 306.842,773.338 306.5,772.5C 387.5,688.5 468.5,604.5 549.5,520.5 Z"/></g>
<g><path style="opacity:1" fill="#e8ab43" d="M 551.5,521.5 C 553.153,521.66 554.486,522.326 555.5,523.5C 554.25,525.932 552.75,528.266 551,530.5C 545.633,535.532 540.633,540.865 536,546.5C 460.962,622.371 386.462,698.704 312.5,775.5C 310.847,775.34 309.514,774.674 308.5,773.5C 383.797,695.702 459.297,618.035 535,540.5C 540.732,534.275 546.232,527.942 551.5,521.5 Z"/></g>
<g><path style="opacity:1" fill="#e6a636" d="M 555.5,523.5 C 557.434,524.11 559.101,525.11 560.5,526.5C 481.87,608.298 403.037,689.965 324,771.5C 321.894,774.118 319.394,776.118 316.5,777.5C 314.62,777.771 313.287,777.104 312.5,775.5C 386.462,698.704 460.962,622.371 536,546.5C 540.633,540.865 545.633,535.532 551,530.5C 552.75,528.266 554.25,525.932 555.5,523.5 Z"/></g>
<g><path style="opacity:1" fill="#f3d5a1" d="M 482.5,482.5 C 483.609,482.557 484.609,482.89 485.5,483.5C 485.833,484.167 486.167,484.833 486.5,485.5C 406.804,566.529 327.471,647.862 248.5,729.5C 247.272,728.694 246.272,727.694 245.5,726.5C 245.5,726.167 245.5,725.833 245.5,725.5C 324.863,644.805 403.863,563.805 482.5,482.5 Z"/></g>
<g><path style="opacity:1" fill="#e4a029" d="M 560.5,526.5 C 563.485,527.326 566.151,528.659 568.5,530.5C 560.167,539.5 551.5,548.167 542.5,556.5C 469.241,631.095 396.241,706.095 323.5,781.5C 320.868,780.528 318.535,779.195 316.5,777.5C 319.394,776.118 321.894,774.118 324,771.5C 403.037,689.965 481.87,608.298 560.5,526.5 Z"/></g>
<g><path style="opacity:1" fill="#ecbd6b" d="M 570.5,531.5 C 573.485,532.326 576.151,533.659 578.5,535.5C 498.37,618.798 418.037,701.965 337.5,785C 336.552,785.483 335.552,785.649 334.5,785.5C 331.557,785.02 328.89,784.02 326.5,782.5C 407.612,698.599 488.946,614.932 570.5,531.5 Z"/></g>
<g><path style="opacity:1" fill="#ebb861" d="M 578.5,535.5 C 582.3,537.234 585.966,539.234 589.5,541.5C 509.47,623.529 429.803,705.863 350.5,788.5C 344.772,788.947 339.438,787.947 334.5,785.5C 335.552,785.649 336.552,785.483 337.5,785C 418.037,701.965 498.37,618.798 578.5,535.5 Z"/></g>
<g><path style="opacity:0.99" fill="#eab356" d="M 589.5,541.5 C 593.817,544.152 597.484,547.485 600.5,551.5C 544.338,608.163 488.671,665.329 433.5,723C 433.728,723.399 434.062,723.565 434.5,723.5C 411.949,744.549 388.616,764.716 364.5,784C 362.423,785.705 360.09,786.872 357.5,787.5C 355.283,788.369 352.95,788.702 350.5,788.5C 429.803,705.863 509.47,623.529 589.5,541.5 Z"/></g>
<g><path style="opacity:0.963" fill="#e9b04e" d="M 600.5,551.5 C 602.873,553.579 604.206,556.246 604.5,559.5C 604.291,560.922 603.791,562.255 603,563.5C 548.174,618.499 492.008,671.832 434.5,723.5C 434.062,723.565 433.728,723.399 433.5,723C 488.671,665.329 544.338,608.163 600.5,551.5 Z"/></g>
<g><path style="opacity:1" fill="#ecbd6a" d="M 536.5,514.5 C 538.954,515.227 541.287,516.227 543.5,517.5C 462.388,601.401 381.054,685.068 299.5,768.5C 296.669,767.921 294.336,766.588 292.5,764.5C 295.263,764.256 297.429,762.923 299,760.5C 378.059,678.389 457.226,596.389 536.5,514.5 Z"/></g>
<g><path style="opacity:1" fill="#faecd5" d="M 498.5,493.5 C 498.833,493.5 499.167,493.5 499.5,493.5C 500.167,493.833 500.833,494.167 501.5,494.5C 501.833,494.5 502.167,494.5 502.5,494.5C 502.833,495.5 503.5,496.167 504.5,496.5C 505.167,496.5 505.5,496.833 505.5,497.5C 500.9,503.275 496.066,508.941 491,514.5C 425.77,581.308 360.77,648.308 296,715.5C 285.913,726.091 275.413,736.091 264.5,745.5C 262.611,744.396 260.945,743.063 259.5,741.5C 260.75,739.068 262.25,736.734 264,734.5C 342.369,654.298 420.536,573.965 498.5,493.5 Z"/></g>
<g><path style="opacity:1" fill="#e7aa41" d="M 542.5,556.5 C 470.9,631.602 398.733,706.268 326,780.5C 325.536,781.094 325.369,781.761 325.5,782.5C 324.833,782.167 324.167,781.833 323.5,781.5C 396.241,706.095 469.241,631.095 542.5,556.5 Z"/></g>
<g><path style="opacity:1" fill="#eab55a" d="M 568.5,530.5 C 569.492,530.328 570.158,530.662 570.5,531.5C 488.946,614.932 407.612,698.599 326.5,782.5C 326.167,782.5 325.833,782.5 325.5,782.5C 325.369,781.761 325.536,781.094 326,780.5C 398.733,706.268 470.9,631.602 542.5,556.5C 551.5,548.167 560.167,539.5 568.5,530.5 Z"/></g>
<g><path style="opacity:0.996" fill="#c71e00" d="M 245.5,726.5 C 246.272,727.694 247.272,728.694 248.5,729.5C 249.08,731.749 250.413,733.415 252.5,734.5C 253.167,735.833 254.167,736.833 255.5,737.5C 256.5,739.167 257.833,740.5 259.5,741.5C 260.945,743.063 262.611,744.396 264.5,745.5C 264.5,746.167 264.833,746.5 265.5,746.5C 267.223,748.218 269.223,749.551 271.5,750.5C 271.973,751.906 272.973,752.573 274.5,752.5C 275.262,754.262 276.596,755.262 278.5,755.5C 279.436,756.974 280.77,757.974 282.5,758.5C 283.965,759.737 285.632,760.737 287.5,761.5C 287.842,762.338 288.508,762.672 289.5,762.5C 289.973,763.906 290.973,764.573 292.5,764.5C 294.336,766.588 296.669,767.921 299.5,768.5C 301.336,770.588 303.669,771.921 306.5,772.5C 306.842,773.338 307.508,773.672 308.5,773.5C 309.514,774.674 310.847,775.34 312.5,775.5C 313.287,777.104 314.62,777.771 316.5,777.5C 318.535,779.195 320.868,780.528 323.5,781.5C 324.167,781.833 324.833,782.167 325.5,782.5C 325.833,782.5 326.167,782.5 326.5,782.5C 328.89,784.02 331.557,785.02 334.5,785.5C 339.438,787.947 344.772,788.947 350.5,788.5C 352.95,788.702 355.283,788.369 357.5,787.5C 357.496,799.541 356.829,811.541 355.5,823.5C 349.168,870.67 324.501,904.503 281.5,925C 254.061,937.027 225.394,944.36 195.5,947C 159.488,950.237 123.488,950.07 87.5,946.5C 67.4277,944.275 47.4277,941.442 27.5,938C 18.2173,936.681 9.2173,934.514 0.5,931.5C 22.4018,876.157 54.4018,827.657 96.5,786C 115.913,768.287 137.913,754.62 162.5,745C 178.914,740.607 195.581,737.607 212.5,736C 223.563,732.985 234.563,729.818 245.5,726.5 Z"/></g>
<g><path style="opacity:1" fill="#db6f5c" d="M 199.5,762.5 C 158.229,785.806 116.896,809.139 75.5,832.5C 74.8933,832.376 74.56,832.043 74.5,831.5C 80.4643,823.868 87.131,816.868 94.5,810.5C 94.56,811.043 94.8933,811.376 95.5,811.5C 123.144,796.01 150.811,780.51 178.5,765C 177.906,764.536 177.239,764.369 176.5,764.5C 183.944,762.942 191.611,762.276 199.5,762.5 Z"/></g>
<g><path style="opacity:1" fill="#d9644f" d="M 199.5,762.5 C 203.833,762.5 208.167,762.5 212.5,762.5C 212.918,763.222 213.584,763.722 214.5,764C 163.226,793.45 111.893,821.95 60.5,849.5C 64.6946,843.099 69.3613,837.099 74.5,831.5C 74.56,832.043 74.8933,832.376 75.5,832.5C 116.896,809.139 158.229,785.806 199.5,762.5 Z"/></g>
<g><path style="opacity:1" fill="#de7967" d="M 176.5,764.5 C 177.239,764.369 177.906,764.536 178.5,765C 150.811,780.51 123.144,796.01 95.5,811.5C 94.8933,811.376 94.56,811.043 94.5,810.5C 117.222,787.147 144.556,771.813 176.5,764.5 Z"/></g>
<g><path style="opacity:1" fill="#d65842" d="M 212.5,762.5 C 217.82,763.26 223.153,763.927 228.5,764.5C 169.327,798.923 109.661,832.59 49.5,865.5C 52.3932,859.612 56.0599,854.278 60.5,849.5C 111.893,821.95 163.226,793.45 214.5,764C 213.584,763.722 212.918,763.222 212.5,762.5 Z"/></g>
<g><path style="opacity:1" fill="#d34e37" d="M 228.5,764.5 C 232.418,765.442 236.418,766.108 240.5,766.5C 174.552,805.149 107.886,842.815 40.5,879.5C 42.7191,874.291 45.7191,869.624 49.5,865.5C 109.661,832.59 169.327,798.923 228.5,764.5 Z"/></g>
<g><path style="opacity:1" fill="#d1432a" d="M 240.5,766.5 C 245.213,767.285 249.879,768.285 254.5,769.5C 180.461,811.501 106.461,852.834 32.5,893.5C 34.6643,888.5 37.331,883.833 40.5,879.5C 107.886,842.815 174.552,805.149 240.5,766.5 Z"/></g>
<g><path style="opacity:1" fill="#ce381e" d="M 254.5,769.5 C 257.725,770.807 261.059,771.807 264.5,772.5C 263.358,774.433 261.692,775.933 259.5,777C 186.338,817.747 113.338,858.747 40.5,900C 38.8659,900.494 37.1992,900.66 35.5,900.5C 33.1432,900.663 30.8098,900.497 28.5,900C 29.7332,897.686 31.0666,895.519 32.5,893.5C 106.461,852.834 180.461,811.501 254.5,769.5 Z"/></g>
<g><path style="opacity:1" fill="#cb2c10" d="M 264.5,772.5 C 269.117,774.142 273.45,776.308 277.5,779C 209.672,816.747 142.005,854.747 74.5,893C 69.0272,896.155 63.3605,898.822 57.5,901C 49.9882,901.822 42.6549,901.655 35.5,900.5C 37.1992,900.66 38.8659,900.494 40.5,900C 113.338,858.747 186.338,817.747 259.5,777C 261.692,775.933 263.358,774.433 264.5,772.5 Z"/></g>
<g><path style="opacity:0.057" fill="#000000" d="M 527.5,991.5 C 507.5,991.5 487.5,991.5 467.5,991.5C 376.554,990.408 285.888,983.575 195.5,971C 158.659,965.935 122.659,957.769 87.5,946.5C 123.488,950.07 159.488,950.237 195.5,947C 225.394,944.36 254.061,937.027 281.5,925C 324.501,904.503 349.168,870.67 355.5,823.5C 481.361,816.288 607.028,818.788 732.5,831C 779.3,835.662 825.633,843.162 871.5,853.5C 896.864,859.121 921.197,867.621 944.5,879C 952.101,883.214 958.601,888.714 964,895.5C 967.58,902.695 967.247,909.695 963,916.5C 959.833,919.667 956.667,922.833 953.5,926C 942.724,932.721 931.391,938.388 919.5,943C 882.636,955.307 844.969,964.307 806.5,970C 713.823,983.333 620.823,990.5 527.5,991.5 Z"/></g>
</svg>
